<svg width="52" height="55" viewBox="0 0 52 55" fill="none" xmlns="http://www.w3.org/2000/svg">
<rect width="52" height="52" rx="8" fill="#006ACC"/>
<path d="M32.36 11.04C33.152 11.04 33.926 11.148 34.682 11.364C35.438 11.58 36.068 11.94 36.572 12.444C37.076 12.912 37.328 13.542 37.328 14.334C37.328 15.234 37.058 15.954 36.518 16.494C36.014 16.998 35.42 17.25 34.736 17.25C34.412 17.25 33.926 17.178 33.278 17.034C32.63 16.854 32 16.764 31.388 16.764C30.488 16.764 29.786 16.962 29.282 17.358C28.814 17.754 28.49 18.222 28.31 18.762C28.13 19.266 28.04 19.716 28.04 20.112V47.706C28.04 48.642 27.734 49.434 27.122 50.082C26.51 50.694 25.736 51 24.8 51C23.864 51 23.09 50.694 22.478 50.082C21.866 49.434 21.56 48.642 21.56 47.706V20.166C21.56 17.61 22.46 15.45 24.26 13.686C26.06 11.922 28.76 11.04 32.36 11.04ZM32.954 22.65C33.818 22.65 34.538 22.938 35.114 23.514C35.69 24.054 35.978 24.756 35.978 25.62C35.978 26.484 35.69 27.204 35.114 27.78C34.538 28.32 33.818 28.59 32.954 28.59H18.644C17.78 28.59 17.06 28.32 16.484 27.78C15.908 27.204 15.62 26.484 15.62 25.62C15.62 24.756 15.908 24.054 16.484 23.514C17.06 22.938 17.78 22.65 18.644 22.65H32.954Z" fill="white"/>
</svg>
