<svg width="20" height="22" viewBox="0 0 20 22" fill="none" xmlns="http://www.w3.org/2000/svg">
<path d="M18.2799 9H1.61707M13.6513 1V5M6.24564 1V5M6.06049 21H13.8365C15.3918 21 16.1695 21 16.7636 20.673C17.2861 20.3854 17.711 19.9265 17.9772 19.362C18.2799 18.7202 18.2799 17.8802 18.2799 16.2V7.8C18.2799 6.11984 18.2799 5.27976 17.9772 4.63803C17.711 4.07354 17.2861 3.6146 16.7636 3.32698C16.1695 3 15.3918 3 13.8365 3H6.06049C4.50515 3 3.72748 3 3.13341 3.32698C2.61086 3.6146 2.18601 4.07354 1.91976 4.63803C1.61707 5.27976 1.61707 6.11984 1.61707 7.8V16.2C1.61707 17.8802 1.61707 18.7202 1.91976 19.362C2.18601 19.9265 2.61086 20.3854 3.13341 20.673C3.72748 21 4.50515 21 6.06049 21Z" stroke="white" stroke-width="2" stroke-linecap="round" stroke-linejoin="round"/>
</svg>
