<svg width="20" height="22" viewBox="0 0 20 22" fill="none" xmlns="http://www.w3.org/2000/svg">
<path d="M18.44 9H1.7771M13.8114 1V5M6.40567 1V5M6.22053 21H13.9965C15.5519 21 16.3295 21 16.9236 20.673C17.4462 20.3854 17.871 19.9265 18.1373 19.362C18.44 18.7202 18.44 17.8802 18.44 16.2V7.8C18.44 6.11984 18.44 5.27976 18.1373 4.63803C17.871 4.07354 17.4462 3.6146 16.9236 3.32698C16.3295 3 15.5519 3 13.9965 3H6.22053C4.66518 3 3.88751 3 3.29345 3.32698C2.77089 3.6146 2.34604 4.07354 2.07979 4.63803C1.7771 5.27976 1.7771 6.11984 1.7771 7.8V16.2C1.7771 17.8802 1.7771 18.7202 2.07979 19.362C2.34604 19.9265 2.77089 20.3854 3.29345 20.673C3.88751 21 4.66518 21 6.22053 21Z" stroke="#378798" stroke-width="2" stroke-linecap="round" stroke-linejoin="round"/>
</svg>
